<?xml version="1.0" encoding="UTF-8"?>
<svg width="50px" height="60px" viewBox="0 0 50 60" version="1.1" xmlns="http://www.w3.org/2000/svg" xmlns:xlink="http://www.w3.org/1999/xlink">
    <g id="Components" stroke="none" stroke-width="1" fill="none" fill-rule="evenodd">
        <g id="Main-web" transform="translate(-566.000000, -1152.000000)" fill="#259EFA">
            <g id="multi" transform="translate(241.000000, 1008.000000)">
                <g id="cards" transform="translate(0.000000, 94.000000)">
                    <g id="2" transform="translate(240.000000, 0.000000)">
                        <path d="M95,95 C95,96.375 96.125,97.5 97.5,97.5 L100,97.5 L100,106.25 C100,108.325 101.675,110 103.75,110 C105.825,110 107.5,108.325 107.5,106.25 L107.5,97.5 L112.5,97.5 L112.5,106.25 C112.5,108.325 114.175,110 116.25,110 C118.325,110 120,108.325 120,106.25 L120,97.5 L122.5,97.5 C123.875,97.5 125,96.375 125,95 L125,70 L95,70 L95,95 Z M88.75,70 C86.675,70 85,71.675 85,73.75 L85,91.25 C85,93.325 86.675,95 88.75,95 C90.825,95 92.5,93.325 92.5,91.25 L92.5,73.75 C92.5,71.675 90.825,70 88.75,70 Z M131.25,70 C129.175,70 127.5,71.675 127.5,73.75 L127.5,91.25 C127.5,93.325 129.175,95 131.25,95 C133.325,95 135,93.325 135,91.25 L135,73.75 C135,71.675 133.325,70 131.25,70 Z M122.075,52.15 C122.575,51.65 122.575,50.875 122.075,50.375 C121.575,49.875 120.8,49.875 120.3,50.375 L116.6,54.075 C114.625,53.075 112.375,52.5 110,52.5 C107.6,52.5 105.35,53.075 103.35,54.075 L99.625,50.375 C99.125,49.875 98.35,49.875 97.85,50.375 C97.35,50.875 97.35,51.65 97.85,52.15 L101.125,55.425 C97.425,58.15 95,62.525 95,67.5 L125,67.5 C125,62.525 122.575,58.125 118.825,55.4 L122.075,52.15 Z M105,61.25 C105,61.9403559 104.445169,62.5 103.75,62.5 L103.75,62.5 C103.059644,62.5 102.5,61.945169 102.5,61.25 L102.5,61.25 C102.5,60.5596441 103.054831,60 103.75,60 L103.75,60 C104.440356,60 105,60.554831 105,61.25 L105,61.25 Z M117.5,61.25 C117.5,61.9403559 116.945169,62.5 116.25,62.5 L116.25,62.5 C115.559644,62.5 115,61.945169 115,61.25 L115,61.25 C115,60.5596441 115.554831,60 116.25,60 L116.25,60 C116.940356,60 117.5,60.554831 117.5,61.25 L117.5,61.25 Z" id="Shape"></path>
                    </g>
                </g>
            </g>
        </g>
    </g>
</svg>