<svg xmlns="http://www.w3.org/2000/svg" width="56" height="56" fill="none" fill-rule="evenodd"><circle cx="28" cy="28" r="28" fill="#29b672"/><g fill-rule="nonzero"><rect width="26" height="2" y="19" fill="#aae2c7" rx=".5" x="15"/><rect width="6" height="6" fill="#fff" rx="1.5" x="15" y="17"/><rect width="26" height="2" y="27" fill="#aae2c7" rx=".5" x="15"/><rect width="6" height="6" x="25" y="25" fill="#fff" rx="1.5"/><rect width="26" height="2" y="35" fill="#aae2c7" rx=".5" x="15"/><rect width="6" height="6" x="35" y="33" fill="#fff" rx="1.5"/></g><circle cx="48" cy="10" r="8" fill="#8ed4b2"/><path fill="#fff" d="M46.87 10.7l3.9-3.9a.5.5 0 0 1 .7 0l.7.72c.2.2.2.5 0 .7l-4.16 4.17a.5.5 0 0 1-.08.1l-.7.7a.5.5 0 0 1-.71 0l-2.83-2.83a.5.5 0 0 1 0-.7l.7-.7c.2-.2.52-.2.7 0l1.76 1.74z"/></svg>