<svg xmlns="http://www.w3.org/2000/svg" width="56" height="56" fill-rule="evenodd"><circle cx="28" cy="28" r="28" fill="#29b672"/><g fill="#fff"><path d="M17.7 32.87v-8.74h-1.3a1 1 0 0 0-1 1v13.82l2.25-1.98h16.02a1 1 0 0 0 1-1v-1.1H19.7a2 2 0 0 1-2-2z" opacity=".7"/><path d="M20.85 18.2H39.6a1 1 0 0 1 1 1V36l-3.85-2.96h-15.9a1 1 0 0 1-1-1V19.2a1 1 0 0 1 1-1zm4.93 8.9a1.48 1.48 0 1 0 0-2.97 1.48 1.48 0 0 0 0 2.96zm4.44 0a1.48 1.48 0 1 0 0-2.97 1.48 1.48 0 0 0 0 2.96zm4.45 0a1.48 1.48 0 1 0 0-2.97 1.48 1.48 0 0 0 0 2.96z"/></g><circle cx="48" cy="10" r="8" fill="#8ed4b2"/><path fill="#fff" d="M46.87 10.7l3.9-3.9a.5.5 0 0 1 .7 0l.7.72c.2.2.2.5 0 .7l-4.16 4.17a.5.5 0 0 1-.08.1l-.7.7a.5.5 0 0 1-.71 0l-2.83-2.83a.5.5 0 0 1 0-.7l.7-.7c.2-.2.52-.2.7 0l1.76 1.74z"/></svg>