<svg xmlns="http://www.w3.org/2000/svg" width="56" height="56" fill-rule="evenodd"><circle cx="28" cy="28" r="28" fill="#29b672"/><g fill="#fff"><path d="M27 38.2v-4a8 8 0 0 1-7.67-8v-7a1 1 0 0 1 1-1h15.34a1 1 0 0 1 1 1v7a8 8 0 0 1-7.68 8v4h2.34A2.67 2.67 0 0 1 34 40.87H22a2.67 2.67 0 0 1 2.67-2.67H27z"/><path d="M17.38 27.53v-8H15.7a1 1 0 0 0-1 1v4.34c0 1.47 1.2 2.66 2.67 2.66zm21.3 0v-8h1.66a1 1 0 0 1 1 1v4.34c0 1.47-1.2 2.66-2.66 2.66z" opacity=".7"/></g><circle cx="48" cy="10" r="8" fill="#8ed4b2"/><path fill="#fff" d="M46.87 10.7l3.9-3.9a.5.5 0 0 1 .7 0l.7.72c.2.2.2.5 0 .7l-4.16 4.17a.5.5 0 0 1-.08.1l-.7.7a.5.5 0 0 1-.71 0l-2.83-2.83a.5.5 0 0 1 0-.7l.7-.7c.2-.2.52-.2.7 0l1.76 1.74z"/></svg>