<?xml version="1.0" encoding="UTF-8"?>
<svg width="32px" height="32px" viewBox="0 0 32 32" version="1.1" xmlns="http://www.w3.org/2000/svg" xmlns:xlink="http://www.w3.org/1999/xlink">
    <g id="Components" stroke="none" stroke-width="1" fill="none" fill-rule="evenodd">
        <g id="Main-web" transform="translate(-504.000000, -1165.000000)" fill="#259EFA">
            <g id="multi" transform="translate(241.000000, 1008.000000)">
                <g id="cards" transform="translate(0.000000, 94.000000)">
                    <path d="M294.37,67.26 C294.06,66.47 293.34,65.36 292.32,64.57 C291.73,64.12 291.03,63.68 290.07,63.4 C289.04,63.1 287.77,63 286.2,63 L271.8,63 C270.23,63 268.96,63.1 267.93,63.41 C266.97,63.7 266.26,64.13 265.68,64.58 C264.66,65.36 263.94,66.48 263.63,67.27 C263.01,68.86 263,70.66 263,71.8 L263,86.2 C263,87.34 263.01,89.14 263.63,90.74 C263.94,91.53 264.66,92.64 265.68,93.43 C266.27,93.88 266.97,94.32 267.93,94.6 C268.96,94.9 270.23,95 271.8,95 L286.2,95 C287.77,95 289.04,94.9 290.07,94.59 C291.03,94.3 291.74,93.87 292.32,93.42 C293.34,92.64 294.06,91.52 294.37,90.73 C295,89.14 295,87.33 295,86.19 L295,71.8 C295,70.66 294.99,68.86 294.37,67.26 Z M269.34,85 L268.15,85 L268.15,77.89 L269.34,77.89 L269.34,85 Z M268.75,76.69 C268.35,76.69 268.01,76.36 268.01,75.95 C268.01,75.54 268.34,75.21 268.75,75.21 C269.16,75.21 269.5,75.54 269.5,75.95 C269.49,76.36 269.16,76.69 268.75,76.69 Z M275.9,85.18 C272.76,85.18 270.78,82.94 270.78,79.37 C270.78,75.8 272.76,73.55 275.9,73.55 C279.04,73.55 281.02,75.8 281.02,79.37 C281.02,82.94 279.04,85.18 275.9,85.18 Z M286.26,85.18 C283.9,85.18 282.24,83.88 282.13,81.94 L283.2,81.94 C283.32,83.29 284.59,84.21 286.36,84.21 C288.05,84.21 289.26,83.29 289.26,82.02 C289.26,80.97 288.53,80.34 286.86,79.92 L285.46,79.56 C283.37,79.03 282.44,78.15 282.44,76.66 C282.44,74.84 284.08,73.54 286.3,73.54 C288.5,73.54 290.1,74.84 290.17,76.63 L289.1,76.63 C289,75.36 287.87,74.51 286.27,74.51 C284.71,74.51 283.55,75.38 283.55,76.62 C283.55,77.59 284.25,78.16 285.91,78.58 L287.13,78.89 C289.4,79.46 290.35,80.33 290.35,81.9 C290.35,83.88 288.76,85.18 286.26,85.18 Z M279.93,79.37 C279.93,82.32 278.37,84.19 275.9,84.19 C273.43,84.19 271.88,82.32 271.88,79.37 C271.88,76.41 273.43,74.54 275.9,74.54 C278.37,74.54 279.93,76.41 279.93,79.37 Z" id="iOS_10"></path>
                </g>
            </g>
        </g>
    </g>
</svg>