<?xml version="1.0" encoding="UTF-8"?>
<svg width="42px" height="42px" viewBox="0 0 42 42" version="1.1" xmlns="http://www.w3.org/2000/svg" xmlns:xlink="http://www.w3.org/1999/xlink">
    <g id="Components" stroke="none" stroke-width="1" fill="none" fill-rule="evenodd">
        <g id="Main-web" transform="translate(-637.000000, -1156.000000)" fill-rule="nonzero" fill="#259EFA">
            <g id="multi" transform="translate(241.000000, 1008.000000)">
                <g id="cards" transform="translate(0.000000, 94.000000)">
                    <path d="M419.091,68.018 L419.091,67.676 L418.028,67.749 C417.727,67.768 417.501,67.832 417.349,67.94 C417.197,68.049 417.121,68.2 417.121,68.393 C417.121,68.581 417.196,68.731 417.347,68.842 C417.497,68.954 417.699,69.009 417.951,69.009 C418.112,69.009 418.263,68.984 418.402,68.935 C418.541,68.886 418.663,68.817 418.765,68.729 C418.867,68.642 418.947,68.538 419.004,68.417 C419.062,68.296 419.091,68.163 419.091,68.018 Z M417,54.25 C405.421,54.25 396.25,63.421 396.25,75 C396.25,86.58 405.421,95.75 417,95.75 C428.579,95.75 437.75,86.58 437.75,75 C437.75,63.421 428.58,54.25 417,54.25 Z M421.028,66.549 C421.126,66.274 421.264,66.038 421.443,65.842 C421.622,65.646 421.837,65.495 422.089,65.389 C422.341,65.283 422.622,65.23 422.931,65.23 C423.21,65.23 423.462,65.272 423.686,65.355 C423.911,65.438 424.103,65.55 424.264,65.691 C424.425,65.832 424.553,65.996 424.647,66.184 C424.741,66.372 424.797,66.571 424.816,66.78 L423.983,66.78 C423.962,66.665 423.924,66.557 423.87,66.458 C423.816,66.359 423.745,66.273 423.657,66.2 C423.568,66.127 423.464,66.07 423.345,66.029 C423.225,65.987 423.091,65.967 422.94,65.967 C422.763,65.967 422.602,66.003 422.459,66.074 C422.315,66.145 422.192,66.246 422.09,66.376 C421.988,66.506 421.909,66.665 421.853,66.851 C421.796,67.038 421.768,67.245 421.768,67.473 C421.768,67.709 421.796,67.921 421.853,68.107 C421.909,68.294 421.989,68.451 422.093,68.58 C422.196,68.709 422.321,68.808 422.466,68.876 C422.611,68.944 422.771,68.979 422.945,68.979 C423.23,68.979 423.462,68.912 423.642,68.778 C423.822,68.644 423.938,68.448 423.992,68.19 L424.826,68.19 C424.802,68.418 424.739,68.626 424.637,68.814 C424.535,69.002 424.403,69.162 424.241,69.295 C424.078,69.428 423.887,69.531 423.667,69.603 C423.447,69.675 423.205,69.712 422.942,69.712 C422.63,69.712 422.349,69.66 422.096,69.557 C421.844,69.454 421.627,69.305 421.447,69.112 C421.267,68.919 421.128,68.684 421.03,68.407 C420.932,68.13 420.883,67.819 420.883,67.472 C420.881,67.133 420.93,66.825 421.028,66.549 Z M409.175,65.287 L410.009,65.287 L410.009,66.028 L410.025,66.028 C410.076,65.905 410.143,65.794 410.225,65.698 C410.307,65.601 410.401,65.519 410.509,65.45 C410.616,65.381 410.735,65.329 410.863,65.293 C410.992,65.257 411.128,65.239 411.27,65.239 C411.576,65.239 411.835,65.312 412.045,65.458 C412.256,65.604 412.406,65.814 412.494,66.088 L412.515,66.088 C412.571,65.956 412.645,65.838 412.736,65.734 C412.827,65.63 412.932,65.54 413.05,65.466 C413.168,65.392 413.298,65.336 413.439,65.297 C413.58,65.258 413.728,65.239 413.884,65.239 C414.099,65.239 414.294,65.273 414.47,65.342 C414.646,65.411 414.796,65.507 414.921,65.632 C415.046,65.757 415.142,65.909 415.209,66.087 C415.276,66.265 415.31,66.463 415.31,66.681 L415.31,69.662 L414.44,69.662 L414.44,66.89 C414.44,66.603 414.366,66.38 414.218,66.223 C414.071,66.066 413.86,65.987 413.586,65.987 C413.452,65.987 413.329,66.011 413.217,66.058 C413.106,66.105 413.009,66.171 412.929,66.256 C412.848,66.34 412.785,66.442 412.74,66.56 C412.694,66.678 412.671,66.807 412.671,66.947 L412.671,69.662 L411.813,69.662 L411.813,66.818 C411.813,66.692 411.793,66.578 411.754,66.476 C411.715,66.374 411.66,66.287 411.587,66.214 C411.515,66.141 411.426,66.086 411.323,66.047 C411.219,66.008 411.103,65.988 410.974,65.988 C410.84,65.988 410.716,66.013 410.601,66.063 C410.487,66.113 410.389,66.182 410.307,66.27 C410.225,66.359 410.161,66.463 410.116,66.584 C410.072,66.704 410,66.836 410,66.978 L410,69.661 L409.175,69.661 L409.175,65.287 Z M411.068,86.226 C407.243,86.226 404.844,83.568 404.844,79.326 C404.844,75.084 407.243,72.417 411.068,72.417 C414.893,72.417 417.283,75.084 417.283,79.326 C417.283,83.567 414.893,86.226 411.068,86.226 Z M418.15,69.651 C418.009,69.687 417.865,69.705 417.717,69.705 C417.499,69.705 417.3,69.674 417.119,69.612 C416.937,69.55 416.782,69.463 416.652,69.35 C416.522,69.237 416.42,69.101 416.348,68.941 C416.275,68.781 416.239,68.603 416.239,68.407 C416.239,68.023 416.382,67.723 416.668,67.507 C416.954,67.291 417.368,67.165 417.911,67.13 L419.091,67.062 L419.091,66.724 C419.091,66.472 419.011,66.279 418.851,66.148 C418.691,66.017 418.465,65.951 418.172,65.951 C418.054,65.951 417.943,65.966 417.841,65.995 C417.739,66.025 417.649,66.067 417.571,66.122 C417.493,66.177 417.428,66.243 417.378,66.32 C417.327,66.396 417.292,66.482 417.273,66.576 L416.455,66.576 C416.46,66.383 416.508,66.204 416.598,66.04 C416.688,65.876 416.81,65.734 416.965,65.613 C417.12,65.492 417.301,65.398 417.511,65.331 C417.721,65.264 417.949,65.23 418.196,65.23 C418.462,65.23 418.703,65.263 418.919,65.331 C419.135,65.399 419.32,65.494 419.473,65.619 C419.626,65.744 419.744,65.894 419.827,66.07 C419.91,66.246 419.952,66.443 419.952,66.66 L419.952,69.661 L419.119,69.661 L419.119,68.932 L419.098,68.932 C419.036,69.05 418.958,69.157 418.863,69.252 C418.767,69.347 418.66,69.429 418.541,69.496 C418.421,69.563 418.291,69.615 418.15,69.651 Z M423.653,86.226 C420.736,86.226 418.753,84.698 418.615,82.299 L420.514,82.299 C420.662,83.67 421.987,84.578 423.802,84.578 C425.543,84.578 426.794,83.67 426.794,82.429 C426.794,81.355 426.034,80.706 424.275,80.262 L422.561,79.836 C420.097,79.225 418.977,78.104 418.977,76.261 C418.977,73.992 420.959,72.417 423.784,72.417 C426.544,72.417 428.47,74.001 428.544,76.279 L426.664,76.279 C426.534,74.908 425.414,74.065 423.746,74.065 C422.088,74.065 420.94,74.917 420.94,76.149 C420.94,77.121 421.662,77.696 423.422,78.14 L424.867,78.501 C427.618,79.168 428.748,80.252 428.748,82.197 C428.747,84.679 426.784,86.226 423.653,86.226 Z M411.068,74.12 C408.447,74.12 406.808,76.13 406.808,79.325 C406.808,82.511 408.447,84.521 411.068,84.521 C413.68,84.521 415.328,82.511 415.328,79.325 C415.329,76.13 413.68,74.12 411.068,74.12 Z" id="macOS_Finder"></path>
                </g>
            </g>
        </g>
    </g>
</svg>