<?xml version="1.0" encoding="UTF-8"?>
<svg width="60px" height="60px" viewBox="0 0 60 60" version="1.1" xmlns="http://www.w3.org/2000/svg" xmlns:xlink="http://www.w3.org/1999/xlink">
    <g id="Page-1" stroke="none" stroke-width="1" fill="none" fill-rule="evenodd">
        <g id="cards" transform="translate(-760.000000, -27.000000)" fill="#259EFA">
            <g id="4" transform="translate(690.000000, 0.000000)">
                <path d="M129.56,27 C129.55,36.4 129.539333,45.8 129.528,55.2 C129.488431,55.321044 129.435081,55.4371391 129.369,55.546 L97.234,55.546 L97.234,31.692 C99.234,31.392 101.257,31.085 103.277,30.792 C108.397667,30.04 113.519,29.2906667 118.641,28.544 C121.731667,28.092 124.822333,27.6396667 127.913,27.187 C128.10869,27.141799 128.300335,27.080593 128.486,27.004 L129.56,27.004 L129.56,27 Z M129.5,58.628 L129.5,87 L97.246,82.433 L97.246,58.633 L129.5,58.633 L129.5,58.628 Z M70,78.711 L70,58.361 L94.278,58.361 L94.278,82.061 L70,78.711 Z M94.3,32.111 L94.3,55.757 L70.037,55.757 L70.037,35.427 L94.3,32.111 Z" id="icon"></path>
            </g>
        </g>
    </g>
</svg>